<?xml version="1.0" encoding="UTF-8" standalone="no"?><svg xmlns="http://www.w3.org/2000/svg" xmlns:xlink="http://www.w3.org/1999/xlink" contentScriptType="application/ecmascript" contentStyleType="text/css" height="325px" preserveAspectRatio="none" style="width:645px;height:325px;background:#FFFFFF;" version="1.1" viewBox="0 0 645 325" width="645px" zoomAndPan="magnify"><defs><filter height="300%" id="fz705jfpxzv8d" width="300%" x="-1" y="-1"><feGaussianBlur result="blurOut" stdDeviation="2.0"/><feColorMatrix in="blurOut" result="blurOut2" type="matrix" values="0 0 0 0 0 0 0 0 0 0 0 0 0 0 0 0 0 0 .4 0"/><feOffset dx="4.0" dy="4.0" in="blurOut2" result="blurOut3"/><feBlend in="SourceGraphic" in2="blurOut3" mode="normal"/></filter></defs><g><!--MD5=[e721b76f5aa420a2729476cd3b651377]
class Modeler--><rect codeLine="0" fill="#F8F8F8" filter="url(#fz705jfpxzv8d)" height="25.0938" id="Modeler" style="stroke:#383838;stroke-width:1.5;" width="50" x="151.68" y="95"/><text fill="#000000" font-family="sans-serif" font-size="12" lengthAdjust="spacing" textLength="44" x="154.68" y="112.457">Modeler</text><!--MD5=[c3851c238e1897a153445ba47a088641]
class Rms--><rect codeLine="0" fill="#F8F8F8" filter="url(#fz705jfpxzv8d)" height="25.0938" id="Rms" style="stroke:#383838;stroke-width:1.5;" width="33" x="237.18" y="95"/><text fill="#000000" font-family="sans-serif" font-size="12" lengthAdjust="spacing" textLength="27" x="240.18" y="112.457">Rms</text><!--MD5=[c05f8d4c5007184b0fb1ea93cdb8d9fe]
class Repository--><rect codeLine="0" fill="#F8F8F8" filter="url(#fz705jfpxzv8d)" height="25.0938" id="Repository" style="stroke:#383838;stroke-width:1.5;" width="65" x="51.18" y="95"/><text fill="#000000" font-family="sans-serif" font-size="12" lengthAdjust="spacing" textLength="59" x="54.18" y="112.457">Repository</text><!--MD5=[529045db529866ab1410791bcaee983d]
class Monitoring--><rect codeLine="0" fill="#F8F8F8" filter="url(#fz705jfpxzv8d)" height="25.0938" id="Monitoring" style="stroke:#383838;stroke-width:1.5;" width="63" x="305.18" y="95"/><text fill="#000000" font-family="sans-serif" font-size="12" lengthAdjust="spacing" textLength="57" x="308.18" y="112.457">Monitoring</text><!--MD5=[54b712fbc69eba8f233645dc24b0c05a]
class ConnectionManagement--><rect codeLine="0" fill="#F8F8F8" filter="url(#fz705jfpxzv8d)" height="25.0938" id="ConnectionManagement" style="stroke:#383838;stroke-width:1.5;" width="141" x="403.18" y="95"/><text fill="#000000" font-family="sans-serif" font-size="12" lengthAdjust="spacing" textLength="135" x="406.18" y="112.457">ConnectionManagement</text><!--MD5=[2ca1536628238a7dc78c5d90808014f9]
class Session--><rect codeLine="0" fill="#F8F8F8" filter="url(#fz705jfpxzv8d)" height="25.0938" id="Session" style="stroke:#383838;stroke-width:1.5;" width="52" x="579.68" y="95"/><text fill="#000000" font-family="sans-serif" font-size="12" lengthAdjust="spacing" textLength="46" x="582.68" y="112.457">Session</text><!--MD5=[26b1154f4b01dec99cfe7f1f8bee6bbb]
class Cluster--><rect codeLine="0" fill="#F8F8F8" filter="url(#fz705jfpxzv8d)" height="25.0938" id="Cluster" style="stroke:#383838;stroke-width:1.5;" width="46" x="260.68" y="7"/><text fill="#000000" font-family="sans-serif" font-size="12" lengthAdjust="spacing" textLength="40" x="263.68" y="24.457">Cluster</text><!--MD5=[59f1dd4ddd13ecfc85711ce106269ad5]
class ReplicationsModeler--><rect codeLine="0" fill="#F8F8F8" filter="url(#fz705jfpxzv8d)" height="25.0938" id="ReplicationsModeler" style="stroke:#383838;stroke-width:1.5;" width="119" x="90.18" y="183"/><text fill="#000000" font-family="sans-serif" font-size="12" lengthAdjust="spacing" textLength="113" x="93.18" y="200.457">ReplicationsModeler</text><!--MD5=[4f33d8ebf40300c8604eb7a84853e668]
class Replication--><rect codeLine="0" fill="#F8F8F8" filter="url(#fz705jfpxzv8d)" height="25.0938" id="Replication" style="stroke:#383838;stroke-width:1.5;" width="68" x="94.68" y="286"/><text fill="#000000" font-family="sans-serif" font-size="12" lengthAdjust="spacing" textLength="62" x="97.68" y="303.457">Replication</text><!--MD5=[8a6215b7dc8e64ae70c2744f0f74c37a]
class ReplicationFlow--><rect codeLine="0" fill="#F8F8F8" filter="url(#fz705jfpxzv8d)" height="25.0938" id="ReplicationFlow" style="stroke:#383838;stroke-width:1.5;" width="94" x="253.68" y="286"/><text fill="#000000" font-family="sans-serif" font-size="12" lengthAdjust="spacing" textLength="88" x="256.68" y="303.457">ReplicationFlow</text><!--MD5=[d9e77e0490367ea3d6ab9361585272b1]
reverse link Cluster to Modeler--><path codeLine="18" d="M258.4,40.23 C246.59,49.51 232.36,60.76 219.68,71 C209.88,78.9 198.95,87.94 190.56,94.91 " fill="none" id="Cluster-backto-Modeler" style="stroke:#383838;stroke-width:1.0;"/><polygon fill="#383838" points="268.86,32.04,261.67,32.5919,259.4141,39.441,266.6041,38.8891,268.86,32.04" style="stroke:#383838;stroke-width:1.0;"/><!--MD5=[b8186a60ba02da4874df7868d576793d]
reverse link Cluster to Rms--><path codeLine="19" d="M275.3,44.52 C269.58,60.93 262.24,81.95 257.76,94.81 " fill="none" id="Cluster-backto-Rms" style="stroke:#383838;stroke-width:1.0;"/><polygon fill="#383838" points="279.63,32.1,273.877,36.4477,275.6775,43.4304,281.4306,39.0827,279.63,32.1" style="stroke:#383838;stroke-width:1.0;"/><!--MD5=[724af9e839cc3edfb94aa2f09017838e]
reverse link Cluster to Repository--><path codeLine="20" d="M247.69,29.42 C216.54,37.88 170.79,52.1 133.68,71 C120.78,77.57 107.47,87.18 97.83,94.74 " fill="none" id="Cluster-backto-Repository" style="stroke:#383838;stroke-width:1.0;"/><polygon fill="#383838" points="260.48,26.05,253.6585,23.7117,248.8765,29.1091,255.6979,31.4474,260.48,26.05" style="stroke:#383838;stroke-width:1.0;"/><!--MD5=[c314cdcefcd1174d40ae00a57b94120b]
reverse link Cluster to ConnectionManagement--><path codeLine="21" d="M319.3,36.62 C356.79,53.59 414.86,79.88 448.07,94.91 " fill="none" id="Cluster-backto-ConnectionManagement" style="stroke:#383838;stroke-width:1.0;"/><polygon fill="#383838" points="306.98,31.05,310.7981,37.1673,317.9134,35.9958,314.0953,29.8784,306.98,31.05" style="stroke:#383838;stroke-width:1.0;"/><!--MD5=[f06816be5f7f823b5413b767a7d39da6]
reverse link Cluster to Monitoring--><path codeLine="22" d="M297.87,43.54 C308.07,60.08 321.39,81.69 329.47,94.81 " fill="none" id="Cluster-backto-Monitoring" style="stroke:#383838;stroke-width:1.0;"/><polygon fill="#383838" points="290.83,32.1,290.5685,39.3064,297.1199,42.3194,297.3814,35.1131,290.83,32.1" style="stroke:#383838;stroke-width:1.0;"/><!--MD5=[28dc4d4dab1cb3386b6efa9b26d2e15c]
reverse link Cluster to Session--><path codeLine="24" d="M319.87,21.42 C374.61,24.03 480.64,33.9 561.68,71 C574.17,76.72 586.16,86.8 594.46,94.76 " fill="none" id="Cluster-backto-Session" style="stroke:#383838;stroke-width:1.0;"/><polygon fill="#383838" points="306.79,20.89,312.6224,25.1307,318.7801,21.378,312.9477,17.1373,306.79,20.89" style="stroke:#383838;stroke-width:1.0;"/><!--MD5=[9709e5688948696f9528c2488bf115c9]
reverse link Modeler to ReplicationsModeler--><path codeLine="27" d="M169.14,132.52 C163.99,148.93 157.39,169.95 153.35,182.81 " fill="none" id="Modeler-backto-ReplicationsModeler" style="stroke:#383838;stroke-width:1.0;"/><polygon fill="#383838" points="173.04,120.1,167.4289,124.6294,169.4517,131.5509,175.0628,127.0216,173.04,120.1" style="stroke:#383838;stroke-width:1.0;"/><!--MD5=[777e83518df2882fcef24ad87ccf4a5b]
link ReplicationsModeler to Replication--><path codeLine="30" d="M147.27,208.09 C143.24,227.46 135.18,266.24 131.12,285.74 " fill="none" id="ReplicationsModeler-Replication" style="stroke:#383838;stroke-width:1.0;"/><polygon fill="#000000" points="144.6619,252.071,149.381,243.8139,143.6263,242.617,144.6619,252.071" style="stroke:#000000;stroke-width:1.0;"/><text fill="#000000" font-family="sans-serif" font-size="13" lengthAdjust="spacing" textLength="43" x="154.68" y="252.4951">creates</text><!--MD5=[d56e6effd8cdab5431b08e6e75dfdfe7]
link Repository to Replication--><path codeLine="31" d="M67.2,120.22 C43.95,138.31 6,174.44 21.68,208 C38.8,244.64 79.12,271.56 105.08,285.86 " fill="none" id="Repository-Replication" style="stroke:#383838;stroke-width:1.0;"/><polygon fill="#000000" points="27.7947,200.5499,28.6432,191.0773,22.9133,192.3877,27.7947,200.5499" style="stroke:#000000;stroke-width:1.0;"/><text fill="#000000" font-family="sans-serif" font-size="13" lengthAdjust="spacing" textLength="36" x="35.68" y="200.9951">stores</text><!--MD5=[941aeca6b7e19dbb3a080e83b52608d3]
link Rms to ReplicationFlow--><path codeLine="34" d="M256.55,120.04 C264.92,153.7 289.25,251.55 297.73,285.63 " fill="none" id="Rms-ReplicationFlow" style="stroke:#383838;stroke-width:1.0;"/><polygon fill="#000000" points="284.8867,200.528,285.5558,191.041,279.8517,192.4595,284.8867,200.528" style="stroke:#000000;stroke-width:1.0;"/><text fill="#000000" font-family="sans-serif" font-size="13" lengthAdjust="spacing" textLength="97" x="292.68" y="200.9951">creates and runs</text><!--MD5=[bc20fc3a9d2f4069526d405e540b65e1]
link Monitoring to ReplicationFlow--><path codeLine="35" d="M353.21,120.11 C376.57,138.05 414.78,173.99 399.68,208 C383.79,243.79 345.73,271.33 321.7,285.92 " fill="none" id="Monitoring-ReplicationFlow" style="stroke:#383838;stroke-width:1.0;"/><polygon fill="#000000" points="406.7465,200.5879,411.3225,192.2505,405.5479,191.1531,406.7465,200.5879" style="stroke:#000000;stroke-width:1.0;"/><text fill="#000000" font-family="sans-serif" font-size="13" lengthAdjust="spacing" textLength="50" x="416.68" y="200.9951">monitors</text><!--MD5=[804e12ec5042c72a0b11bca407f88802]
link Replication to ReplicationFlow--><path codeLine="36" d="M163.07,298.5 C189.05,298.5 225,298.5 253.64,298.5 " fill="none" id="Replication-ReplicationFlow" style="stroke:#383838;stroke-width:1.0;stroke-dasharray:7.0,7.0;"/><polygon fill="#000000" points="190.18,286.6758,181.1349,283.7369,181.1349,289.6147,190.18,286.6758" style="stroke:#000000;stroke-width:1.0;"/><text fill="#000000" font-family="sans-serif" font-size="13" lengthAdjust="spacing" textLength="41" x="194.18" y="291.9951">defines</text><!--MD5=[0c1c86c5ef024ce22bd829c202272289]
@startuml RMS Structure
skinparam monochrome true

hide fields
hide methods
hide circle

!include classes/Cluster.iuml

together {
   !include classes/Modeler.iuml
   !include classes/Rms.iuml
   !include classes/Repository.iuml
   !include classes/Monitoring.iuml
   !include classes/ConnectionManagement.iuml
   !include classes/Session.iuml
}

Cluster *- - Modeler
Cluster *- - Rms
Cluster *- - Repository
Cluster *- - ConnectionManagement
Cluster *- - Monitoring

Cluster *- - Session

!include classes/ReplicationsModeler.iuml
Modeler *-down- ReplicationsModeler

!include classes/Replication.iuml
ReplicationsModeler -down- Replication : creates >
Repository -down- Replication : stores >

!include classes/ReplicationFlow.iuml
Rms -down- ReplicationFlow : creates and runs >
Monitoring -down- ReplicationFlow : monitors >
Replication .right. ReplicationFlow : defines >

@enduml

@startuml RMS Structure
skinparam monochrome true

hide fields
hide methods
hide circle

class Cluster {
    +modeler : Modeler
    {static} +connectto(clusterconnectiondata) : Cluster
}

together {
class Modeler {
    +replications : ReplicationsModeler
    +createreplication()
}
class Rms
class Repository
class Monitoring
class ConnectionManagement
class Session
}

Cluster *- - Modeler
Cluster *- - Rms
Cluster *- - Repository
Cluster *- - ConnectionManagement
Cluster *- - Monitoring

Cluster *- - Session

class ReplicationsModeler {
    +createreplication(name) : Replication
}
Modeler *-down- ReplicationsModeler

class Replication {
    +setsourcespace(connectionid, container)
    +settargetspace(connectionid, container) : ReplicationSpace
    +createtask(sourcedataset) : ReplicationTask
}
ReplicationsModeler -down- Replication : creates >
Repository -down- Replication : stores >

class ReplicationFlow {
    +getchangerequeststatus() : Changerequeststatus
    +waitwhilebusy() : Changerequeststatus
    +runorresume()
}
Rms -down- ReplicationFlow : creates and runs >
Monitoring -down- ReplicationFlow : monitors >
Replication .right. ReplicationFlow : defines >

@enduml

PlantUML version 1.2021.16(Wed Dec 08 18:25:22 CET 2021)
(GPL source distribution)
Java Runtime: OpenJDK Runtime Environment
JVM: OpenJDK 64-Bit Server VM
Default Encoding: Cp1252
Language: en
Country: US
--></g></svg>